<svg width="256" height="256" viewBox="0 0 24 24" xmlns="http://www.w3.org/2000/svg"><defs><linearGradient id="backgroundGradient-1750775549523" x1="14.644660940672615%" y1="14.64466094067263%" x2="85.35533905932738%" y2="85.35533905932738%"><stop offset="0%" stop-color="#10b981"/><stop offset="100%" stop-color="#059669"/></linearGradient></defs><rect x="0" y="0" width="24" height="24" rx="8" fill="url(#backgroundGradient-1750775549523)"/><svg xmlns="http://www.w3.org/2000/svg" viewBox="0 0 24 24" fill="#fff" x="0" y="0" width="24" height="24"><g fill="none"><path d="m12.594 23.258l-.012.002l-.071.035l-.02.004l-.014-.004l-.071-.036q-.016-.004-.024.006l-.004.01l-.017.428l.005.02l.01.013l.104.074l.015.004l.012-.004l.104-.074l.012-.016l.004-.017l-.017-.427q-.004-.016-.016-.018m.264-.113l-.014.002l-.184.093l-.01.01l-.003.011l.018.43l.005.012l.008.008l.201.092q.019.005.029-.008l.004-.014l-.034-.614q-.005-.019-.02-.022m-.715.002a.02.02 0 0 0-.027.006l-.006.014l-.034.614q.001.018.017.024l.015-.002l.201-.093l.01-.008l.003-.011l.018-.43l-.003-.012l-.01-.01z"/><path fill="#fff" d="M4 4a1 1 0 0 0 0 2h16a1 1 0 1 0 0-2zm13 4a1 1 0 0 1 .946.677l.13.378a3 3 0 0 0 1.869 1.87l.378.129a1 1 0 0 1 0 1.892l-.378.13a3 3 0 0 0-1.87 1.869l-.129.378a1 1 0 0 1-1.892 0l-.13-.378a3 3 0 0 0-1.869-1.87l-.378-.129a1 1 0 0 1 0-1.892l.378-.13a3 3 0 0 0 1.87-1.869l.129-.378A1 1 0 0 1 17 8m0 3.196a5 5 0 0 1-.804.804q.448.355.804.804q.355-.449.804-.804a5 5 0 0 1-.804-.804M3 19a1 1 0 0 1 1-1h1a1 1 0 1 1 0 2H4a1 1 0 0 1-1-1m11-1a1 1 0 1 0 0 2h1a1 1 0 1 0 0-2zm-6 1a1 1 0 0 1 1-1h1a1 1 0 1 1 0 2H9a1 1 0 0 1-1-1m11-1a1 1 0 1 0 0 2h1a1 1 0 1 0 0-2zM3 12a1 1 0 0 1 1-1h6a1 1 0 1 1 0 2H4a1 1 0 0 1-1-1"/></g></svg></svg>