<svg width="256" height="256" viewBox="0 0 24 24" xmlns="http://www.w3.org/2000/svg"><defs><linearGradient id="backgroundGradient-1750775474257" x1="14.644660940672615%" y1="14.64466094067263%" x2="85.35533905932738%" y2="85.35533905932738%"><stop offset="0%" stop-color="#f43f5e"/><stop offset="100%" stop-color="#e11d48"/></linearGradient></defs><rect x="0" y="0" width="24" height="24" rx="8" fill="url(#backgroundGradient-1750775474257)"/><svg xmlns="http://www.w3.org/2000/svg" viewBox="0 0 24 24" fill="#fff" x="0" y="0" width="24" height="24"><g fill="none" stroke="#fff" stroke-linecap="round" stroke-linejoin="round" stroke-width="1.5" color="currentColor"><path d="M2.459 9c1.277-4.057 5.077-7 9.566-7c5.198 0 9.472 3.947 9.975 9l-2-.407M21.541 15a10.03 10.03 0 0 1-9.566 7C6.777 22 2.503 18.053 2 13l2 .407"/><path d="M9.002 13.528v1.992a.95.95 0 0 0 .432.81c.844.528 1.485.683 2.571.716c1.001.027 1.629-.13 2.563-.714a.96.96 0 0 0 .44-.82v-1.984m2.003-2.513v3.015M7.05 10.844c.362-.764 2.605-2.094 4.652-2.751a.93.93 0 0 1 .604.014c1.81.662 3.824 1.665 4.555 2.478c.381.425.008.967-.453 1.302c-.937.681-1.97 1.21-4.058 2.013a.98.98 0 0 1-.688.005c-2.14-.795-4.142-1.82-4.595-2.723a.39.39 0 0 1-.017-.338"/></g></svg></svg>