<svg xmlns="http://www.w3.org/2000/svg"  viewBox="0 0 48 48" width="48px" height="48px"><linearGradient id="SVGID_1_" x1="37.777" x2="7.477" y1="9.902" y2="40.202" gradientUnits="userSpaceOnUse"><stop offset="0" stop-color="#60affe"/><stop offset=".15" stop-color="#7fbffe"/><stop offset=".436" stop-color="#b6daff"/><stop offset=".684" stop-color="#deeeff"/><stop offset=".88" stop-color="#f6faff"/><stop offset="1" stop-color="#fff"/></linearGradient><path fill="url(#SVGID_1_)" d="M40.5,16.163h-3.953V9.5c0-1.105-0.895-2-2-2H7.5c-1.105,0-2,0.895-2,2v27c0,2.209,1.791,4,3.5,4h30	c2.157,0,3.5-1.343,3.5-3V18.163C42.5,17.058,41.605,16.163,40.5,16.163z"/><line x1="11.5" x2="30.5" y1="16.5" y2="16.5" fill="none" stroke="#2e9bfe" stroke-linecap="round" stroke-linejoin="round" stroke-miterlimit="10" stroke-width="3"/><line x1="25" x2="30.5" y1="24.5" y2="24.5" fill="none" stroke="#2e9bfe" stroke-linecap="round" stroke-linejoin="round" stroke-miterlimit="10" stroke-width="3"/><line x1="25" x2="30.5" y1="31.5" y2="31.5" fill="none" stroke="#2e9bfe" stroke-linecap="round" stroke-linejoin="round" stroke-miterlimit="10" stroke-width="3"/><rect width="7" height="7" x="11.5" y="24.5" fill="none" stroke="#2e9bfe" stroke-linecap="round" stroke-linejoin="round" stroke-miterlimit="10" stroke-width="3"/><path fill="none" stroke="#2e9bfe" stroke-linecap="round" stroke-linejoin="round" stroke-miterlimit="10" stroke-width="3" d="M5.5,25.979V10.5c0-1.657,1.343-3,3-3h25c1.657,0,3,1.343,3,3v4.287"/><path fill="none" stroke="#2e9bfe" stroke-linecap="round" stroke-linejoin="round" stroke-miterlimit="10" stroke-width="3" d="M39.5,40.5h-30c-2.209,0-4-1.791-4-4v-3.862"/><path fill="none" stroke="#2e9bfe" stroke-linecap="round" stroke-linejoin="round" stroke-miterlimit="10" stroke-width="3" d="M36.5,20.489V37.5c0,1.657,1.343,3,3,3h0c1.657,0,3-1.343,3-3V13.266"/></svg>