<svg width="256" height="256" viewBox="0 0 16 16" xmlns="http://www.w3.org/2000/svg"><defs><linearGradient id="backgroundGradient-1750775407308" x1="14.644660940672615%" y1="14.64466094067263%" x2="85.35533905932738%" y2="85.35533905932738%"><stop offset="0%" stop-color="#ec4899"/><stop offset="100%" stop-color="#db2777"/></linearGradient></defs><rect x="0" y="0" width="16" height="16" rx="8" fill="url(#backgroundGradient-1750775407308)"/><svg xmlns="http://www.w3.org/2000/svg" viewBox="0 0 16 16" fill="#fff" x="0" y="0" width="16" height="16"><path fill="#fff" d="M16 6.28a1.23 1.23 0 0 0-.62-1.07l-6.74-4a1.27 1.27 0 0 0-1.28 0l-6.75 4a1.25 1.25 0 0 0 0 2.15l1.92 1.12v2.81a1.28 1.28 0 0 0 .62 1.09l4.25 2.45a1.28 1.28 0 0 0 1.24 0l4.25-2.45a1.28 1.28 0 0 0 .62-1.09V8.45l1.24-.73v2.72H16V6.28zm-3.73 5L8 13.74l-4.22-2.45V9.22l3.58 2.13a1.29 1.29 0 0 0 1.28 0l3.62-2.16zM8 10.27l-6.75-4L8 2.26l6.75 4z"/></svg></svg>